<svg width="512" height="512" viewBox="0 0 512 512" fill="none" xmlns="http://www.w3.org/2000/svg">
  <rect width="512" height="512" rx="112" fill="#CCFF00"/>
  <path fill-rule="evenodd" clip-rule="evenodd" d="M256 128C185.3 128 128 185.3 128 256C128 326.7 185.3 384 256 384C286.2 384 314 373.3 335.7 355.6L405.5 425.5L425.5 405.5L355.6 335.7C373.3 314 384 286.2 384 256C384 185.3 326.7 128 256 128ZM176 256C176 211.8 211.8 176 256 176C300.2 176 336 211.8 336 256C336 300.2 300.2 336 256 336C211.8 336 176 300.2 176 256Z" fill="#0A0F1E"/>
</svg>
